<?xml version="1.0" standalone="no"?>
<!DOCTYPE svg PUBLIC "-//W3C//DTD SVG 20010904//EN"
 "http://www.w3.org/TR/2001/REC-SVG-20010904/DTD/svg10.dtd">
<svg version="1.0" xmlns="http://www.w3.org/2000/svg"
 width="260.000000pt" height="260.000000pt" viewBox="0 0 260.000000 260.000000"
 preserveAspectRatio="xMidYMid meet">
<metadata>
Created by potrace 1.11, written by Peter Selinger 2001-2013
</metadata>
<g transform="translate(0.000000,260.000000) scale(0.100000,-0.100000)"
fill="#000000" stroke="none">
<path d="M270 2157 c-30 -15 -37 -41 -19 -73 18 -34 44 -39 77 -14 22 17 40
21 82 18 l54 -3 14 -50 c18 -68 49 -178 72 -250 10 -33 24 -85 31 -115 6 -30
15 -60 20 -65 4 -6 11 -25 14 -43 3 -18 12 -53 21 -78 9 -26 17 -54 19 -63 6
-25 52 -188 79 -281 23 -76 24 -87 11 -115 -35 -74 -114 -269 -111 -272 1 -2
21 0 42 5 l39 8 59 142 59 142 629 0 c413 0 636 4 649 10 21 12 52 64 42 73
-3 4 -1 12 5 19 6 7 13 36 16 63 8 68 17 118 24 130 3 5 7 16 8 25 1 8 5 29 8
45 4 17 11 55 17 85 6 30 13 62 16 70 4 8 8 25 9 38 4 32 34 174 41 192 4 8 5
20 4 27 -1 6 3 14 9 18 5 3 10 31 10 60 0 48 -3 55 -22 60 -13 3 -405 7 -873
8 l-850 2 -27 85 c-15 47 -35 91 -45 98 -23 16 -200 16 -233 -1z"/>
<path d="M663 730 c-39 -12 -79 -59 -94 -110 -10 -34 -9 -44 12 -87 28 -56 89
-102 134 -101 82 3 161 92 151 172 -11 95 -108 154 -203 126z"/>
<path d="M1844 721 c-52 -32 -77 -83 -72 -147 4 -43 11 -61 34 -85 80 -83 179
-73 241 24 32 51 33 103 3 152 -31 50 -75 75 -130 75 -27 0 -58 -8 -76 -19z"/>
<path d="M1068 703 l-217 -3 20 -35 21 -35 429 0 428 0 16 30 c8 16 15 34 15
40 0 10 -128 10 -712 3z"/>
</g>
</svg>
