<?xml version="1.0" encoding="iso-8859-1"?>
<!-- Generator: Adobe Illustrator 18.0.0, SVG Export Plug-In . SVG Version: 6.00 Build 0)  -->
<!DOCTYPE svg PUBLIC "-//W3C//DTD SVG 1.1//EN" "http://www.w3.org/Graphics/SVG/1.1/DTD/svg11.dtd">
<svg version="1.1" id="Capa_1" xmlns="http://www.w3.org/2000/svg" xmlns:xlink="http://www.w3.org/1999/xlink" x="0px" y="0px"
	 viewBox="0 0 421.203 421.203" style="enable-background:new 0 0 421.203 421.203;" xml:space="preserve">
<g>
	<path d="M319.126,24.721c-8.941,0-17.349,3.484-23.668,9.802c-6.33,6.318-9.816,14.729-9.816,23.682v43.157h-5.857V64.385
		C279.785,28.883,250.898,0,215.391,0c-35.502,0-64.385,28.883-64.385,64.385v123.505h-15.44v-43.154
		c0-18.465-15.021-33.487-33.486-33.487s-33.487,15.022-33.487,33.487v76.641c0,18.465,15.022,33.487,33.487,33.487h48.927v146.339
		h-42.61c-5.522,0-10,4.477-10,10s4.478,10,10,10h214c5.522,0,10-4.477,10-10s-4.478-10-10-10h-42.611V168.331h39.342
		c18.463,0,33.484-15.021,33.484-33.484V58.205C352.611,39.742,337.589,24.721,319.126,24.721z M88.592,221.377V181.13
		c0.493,1.43,1.295,2.753,2.372,3.831c1.86,1.86,4.44,2.93,7.07,2.93s5.21-1.07,7.07-2.93c1.87-1.86,2.939-4.44,2.939-7.07
		c0-2.63-1.069-5.21-2.939-7.07c-1.86-1.86-4.44-2.93-7.07-2.93s-5.2,1.07-7.07,2.93c-1.077,1.078-1.879,2.401-2.372,3.831v-29.915
		c0-7.437,6.051-13.487,13.487-13.487s13.486,6.05,13.486,13.487v66.644c0,5.523,4.478,10,10,10s10-4.477,10-10v-3.489h43.154
		c7.437,0,13.487,6.05,13.487,13.487s-6.051,13.487-13.487,13.487H102.08C94.643,234.864,88.592,228.814,88.592,221.377z
		 M171.006,401.203V254.864h7.714c18.465,0,33.487-15.022,33.487-33.487s-15.022-33.487-33.487-33.487h-7.714V64.385
		c0-24.474,19.911-44.385,44.385-44.385c24.479,0,44.394,19.911,44.394,44.385v336.818H171.006z M319.126,148.331h-39.342v-26.969
		h29.71c5.522,0,10-4.477,10-10s-4.478-10-10-10h-3.853V58.205c0-3.604,1.401-6.987,3.952-9.533
		c2.548-2.548,5.934-3.952,9.532-3.952c7.436,0,13.484,6.049,13.484,13.484v10.916c-0.684-0.148-1.382-0.23-2.086-0.23
		c-2.63,0-5.21,1.07-7.07,2.93c-1.859,1.86-2.93,4.44-2.93,7.07c0,2.64,1.07,5.21,2.93,7.07c1.86,1.87,4.44,2.93,7.07,2.93
		c0.704,0,1.402-0.082,2.086-0.229v46.185C332.611,142.282,326.562,148.331,319.126,148.331z"/>
	<path d="M204.105,78.46c1.859-1.86,2.93-4.43,2.93-7.07c0-2.63-1.07-5.21-2.93-7.07c-1.86-1.86-4.44-2.93-7.07-2.93
		s-5.21,1.07-7.07,2.93c-1.859,1.86-2.93,4.44-2.93,7.07c0,2.64,1.07,5.21,2.93,7.07c1.86,1.87,4.44,2.93,7.07,2.93
		S202.245,80.331,204.105,78.46z"/>
	<path d="M255.105,52.32c-1.87-1.86-4.44-2.93-7.07-2.93s-5.21,1.07-7.07,2.93c-1.869,1.87-2.93,4.44-2.93,7.08
		c0,2.63,1.061,5.2,2.93,7.06c1.86,1.87,4.44,2.93,7.07,2.93s5.2-1.06,7.07-2.93c1.859-1.86,2.93-4.43,2.93-7.06
		C258.035,56.76,256.964,54.181,255.105,52.32z"/>
	<path d="M225.535,135.391c2.63,0,5.21-1.07,7.07-2.93c1.859-1.86,2.93-4.44,2.93-7.07c0-2.63-1.07-5.21-2.93-7.07
		c-1.86-1.86-4.44-2.93-7.07-2.93c-2.64,0-5.21,1.07-7.07,2.93c-1.859,1.86-2.93,4.44-2.93,7.07c0,2.63,1.07,5.21,2.93,7.07
		C220.325,134.32,222.905,135.391,225.535,135.391z"/>
	<path d="M200.035,136.391c-2.63,0-5.21,1.07-7.07,2.93c-1.859,1.86-2.93,4.44-2.93,7.07c0,2.63,1.07,5.21,2.93,7.07
		c1.86,1.86,4.44,2.93,7.07,2.93s5.21-1.07,7.07-2.93c1.859-1.86,2.93-4.44,2.93-7.07c0-2.63-1.07-5.21-2.93-7.07
		C205.245,137.46,202.665,136.391,200.035,136.391z"/>
	<path d="M230.035,253.391c-2.64,0-5.21,1.06-7.07,2.92c-1.869,1.86-2.93,4.44-2.93,7.07c0,2.64,1.061,5.21,2.93,7.07
		c1.86,1.87,4.431,2.93,7.07,2.93c2.63,0,5.21-1.06,7.07-2.93c1.859-1.86,2.93-4.43,2.93-7.07c0-2.63-1.07-5.21-2.93-7.07
		C235.245,254.451,232.665,253.391,230.035,253.391z"/>
	<path d="M198.535,320.88c-2.63,0-5.21,1.07-7.07,2.93c-1.859,1.86-2.93,4.44-2.93,7.07s1.07,5.21,2.93,7.07
		c1.86,1.86,4.44,2.93,7.07,2.93s5.21-1.07,7.07-2.93c1.859-1.86,2.93-4.44,2.93-7.07s-1.07-5.21-2.93-7.07
		C203.745,321.951,201.165,320.88,198.535,320.88z"/>
	<path d="M221.035,332.88c-2.64,0-5.21,1.07-7.07,2.93c-1.859,1.86-2.93,4.43-2.93,7.07c0,2.63,1.07,5.21,2.93,7.07
		c1.86,1.86,4.431,2.93,7.07,2.93c2.63,0,5.21-1.07,7.07-2.93c1.859-1.86,2.93-4.44,2.93-7.07s-1.07-5.21-2.93-7.07
		C226.245,333.951,223.665,332.88,221.035,332.88z"/>
	<path d="M197.035,365.88c-2.63,0-5.21,1.07-7.07,2.93c-1.859,1.86-2.93,4.44-2.93,7.07s1.07,5.21,2.93,7.07
		c1.86,1.86,4.44,2.93,7.07,2.93s5.21-1.07,7.07-2.93c1.859-1.86,2.93-4.44,2.93-7.07s-1.07-5.21-2.93-7.07
		C202.245,366.951,199.665,365.88,197.035,365.88z"/>
</g>
<g>
</g>
<g>
</g>
<g>
</g>
<g>
</g>
<g>
</g>
<g>
</g>
<g>
</g>
<g>
</g>
<g>
</g>
<g>
</g>
<g>
</g>
<g>
</g>
<g>
</g>
<g>
</g>
<g>
</g>
</svg>
